<?xml version="1.0" encoding="UTF-8"?>
<svg id="Camada_2" data-name="Camada 2" xmlns="http://www.w3.org/2000/svg" viewBox="0 0 1645.1 1402.48">
  <defs>
    <style>
      .cls-1 {
        fill: #fff;
      }

      .cls-2 {
        opacity: .3;
      }

      .cls-3 {
        opacity: .25;
      }
    </style>
  </defs>
  <g id="Camada_2-2" data-name="Camada 2">
    <g id="Layer_1" data-name="Layer 1" class="cls-3">
      <g class="cls-2">
        <path class="cls-1" d="M330,1087.11c-5.06,0-10.13-1.93-13.99-5.79-7.73-7.73-7.73-20.25,0-27.98l398.05-398.05c7.73-7.73,20.25-7.73,27.98,0s7.73,20.25,0,27.98l-398.05,398.05c-3.86,3.86-8.92,5.79-13.99,5.79Z"/>
      </g>
      <g class="cls-2">
        <path class="cls-1" d="M19.79,1000.07c-5.06,0-10.13-1.93-13.99-5.79-7.73-7.73-7.73-20.25,0-27.98l398.05-398.05c7.73-7.73,20.25-7.73,27.98,0s7.73,20.25,0,27.98L33.78,994.27c-3.86,3.86-8.92,5.8-13.99,5.8Z"/>
      </g>
      <g class="cls-2">
        <path class="cls-1" d="M252.45,558.49c-5.06,0-10.13-1.93-13.99-5.79-7.73-7.73-7.73-20.25,0-27.98L636.51,126.67c7.73-7.73,20.25-7.73,27.98,0,7.73,7.73,7.73,20.25,0,27.98l-398.05,398.05c-3.86,3.86-8.93,5.79-13.99,5.79h0Z"/>
      </g>
      <g class="cls-2">
        <path class="cls-1" d="M543.67,647.12c-5.06,0-10.13-1.93-13.99-5.79-7.73-7.73-7.73-20.25,0-27.98L927.73,215.3c7.73-7.73,20.25-7.73,27.98,0s7.73,20.25,0,27.98l-398.05,398.05c-3.87,3.86-8.93,5.79-13.99,5.79h0Z"/>
      </g>
      <g class="cls-2">
        <path class="cls-1" d="M431.3,516.55c-10.13,0-20.25-3.86-27.98-11.59-15.45-15.45-15.45-40.5,0-55.96L801.37,50.95c15.45-15.45,40.5-15.45,55.96,0,15.45,15.45,15.45,40.5,0,55.96L459.27,504.96c-7.72,7.73-17.85,11.59-27.97,11.59Z"/>
      </g>
      <g class="cls-2">
        <path class="cls-1" d="M744.67,581.44c-10.13,0-20.25-3.86-27.98-11.59-15.45-15.45-15.45-40.5,0-55.96L1114.74,115.84c15.45-15.45,40.5-15.45,55.96,0,15.45,15.45,15.45,40.5,0,55.96l-398.05,398.05c-7.73,7.73-17.85,11.59-27.98,11.59Z"/>
      </g>
      <g class="cls-2">
        <path class="cls-1" d="M505.75,1402.48c-7.68,0-14.91-2.99-20.34-8.43-11.22-11.22-11.22-29.47,0-40.68L1016.43,822.35c11.22-11.22,29.47-11.22,40.68,0,11.22,11.22,11.22,29.47,0,40.68l-531.02,531.02c-5.43,5.44-12.66,8.43-20.34,8.43h0Zm531.02-583.79c-6.15,0-12.3,2.34-16.98,7.02L488.77,1356.73c-9.36,9.36-9.36,24.6,0,33.97,4.54,4.54,10.57,7.03,16.98,7.03s12.45-2.5,16.98-7.03l531.02-531.02c9.36-9.36,9.36-24.6,0-33.97-4.68-4.68-10.83-7.02-16.98-7.02h0Z"/>
        <path class="cls-1" d="M91.91,1286.35c-7.68,0-14.91-2.99-20.34-8.43-11.22-11.22-11.22-29.47,0-40.68L602.59,706.22c11.22-11.22,29.47-11.22,40.68,0,11.22,11.22,11.22,29.47,0,40.68L112.25,1277.92c-5.43,5.44-12.65,8.43-20.34,8.43h0ZM622.93,702.56c-6.15,0-12.3,2.34-16.98,7.02L74.93,1240.6c-9.36,9.36-9.36,24.6,0,33.97,4.54,4.54,10.57,7.03,16.98,7.03s12.45-2.5,16.98-7.03L639.91,743.55c9.36-9.36,9.36-24.6,0-33.97-4.67-4.68-10.83-7.02-16.98-7.02h0Z"/>
        <path class="cls-1" d="M402.29,697.27c-7.68,0-14.91-2.99-20.34-8.43-11.22-11.22-11.22-29.47,0-40.68L912.97,117.14c11.22-11.22,29.47-11.22,40.68,0,11.22,11.22,11.22,29.47,0,40.68L422.63,688.84c-5.43,5.44-12.66,8.43-20.34,8.43ZM933.31,113.47c-6.15,0-12.3,2.34-16.98,7.02L385.31,651.52c-9.36,9.36-9.36,24.6,0,33.97,4.54,4.54,10.57,7.03,16.98,7.03s12.45-2.5,16.98-7.03L950.29,154.47c9.36-9.36,9.36-24.6,0-33.97-4.68-4.69-10.83-7.03-16.98-7.03Z"/>
        <path class="cls-1" d="M790.79,815.51c-7.68,0-14.91-2.99-20.34-8.43-11.22-11.22-11.22-29.47,0-40.68L1301.47,235.38c11.22-11.22,29.47-11.22,40.68,0,11.22,11.22,11.22,29.47,0,40.68L811.13,807.08c-5.43,5.43-12.66,8.43-20.34,8.43ZM1321.81,231.71c-6.15,0-12.3,2.34-16.98,7.02L773.81,769.75c-9.36,9.36-9.36,24.6,0,33.97,4.54,4.54,10.57,7.03,16.98,7.03s12.45-2.5,16.98-7.03L1338.79,272.7c9.36-9.36,9.36-24.6,0-33.97-4.68-4.68-10.83-7.02-16.98-7.02Z"/>
        <path class="cls-1" d="M640.88,641.32c-14.73,0-28.59-5.74-39-16.16-21.51-21.51-21.51-56.5,0-78.01L1132.9,16.13c21.51-21.51,56.5-21.51,78.01,0,21.51,21.51,21.51,56.5,0,78.01L679.89,625.16c-10.42,10.42-24.28,16.16-39.01,16.16h0ZM1171.9,4.75c-12.91,0-25.82,4.91-35.65,14.74L605.24,550.51c-19.65,19.65-19.65,51.64,0,71.29,9.52,9.52,22.18,14.76,35.65,14.76s26.12-5.24,35.65-14.76L1207.56,90.78c19.65-19.65,19.65-51.64,0-71.29-9.84-9.83-22.75-14.74-35.66-14.74Z"/>
        <path class="cls-1" d="M1058.94,727.88c-14.73,0-28.59-5.74-39-16.16-21.51-21.51-21.51-56.5,0-78.01L1550.96,102.69c21.51-21.51,56.5-21.51,78.01,0s21.51,56.5,0,78.01l-531.02,531.02c-10.42,10.43-24.28,16.16-39.01,16.16ZM1589.96,91.32c-12.91,0-25.82,4.91-35.65,14.74L1023.29,637.08c-19.65,19.66-19.65,51.64,0,71.29,9.52,9.52,22.18,14.76,35.65,14.76s26.12-5.24,35.65-14.76L1625.61,177.35c19.65-19.65,19.65-51.64,0-71.29-9.83-9.83-22.74-14.74-35.65-14.74Z"/>
      </g>
    </g>
  </g>
</svg>