<?xml version="1.0" encoding="UTF-8"?>
<svg id="Camada_2" data-name="Camada 2" xmlns="http://www.w3.org/2000/svg" viewBox="0 0 70 72">
  <defs>
    <style>
      .cls-1 {
        fill: #fff;
      }
    </style>
  </defs>
  <g id="Camada_2-2" data-name="Camada 2-2">
    <g id="Layer_1" data-name="Layer 1">
      <g>
        <g>
          <path class="cls-1" d="M17.84,66.99c-.16-.09-.34-.1-.51,0h0c-.14,.09-.28,.15-.44,.19-.42,.1-.88,.07-1.28-.1-.24-.11-.46-.26-.64-.44-.18-.18-.33-.41-.43-.66-.11-.25-.16-.52-.16-.8s.05-.55,.16-.8c.11-.25,.25-.47,.43-.66,.18-.18,.4-.34,.64-.44,.39-.17,.83-.21,1.27-.1,.16,.04,.32,.1,.47,.18,.03,.01,.07,.02,.11,.04,.16,.05,.27,.02,.4-.05,.09-.05,.15-.13,.2-.22,.07-.13,.08-.26,.04-.41-.05-.14-.13-.25-.26-.33-.22-.11-.46-.2-.7-.27-.68-.19-1.36-.12-1.94,.14-.37,.16-.7,.39-.98,.68-.27,.28-.5,.62-.66,1-.16,.38-.24,.79-.24,1.22s.08,.84,.24,1.22,.38,.72,.66,1,.6,.51,.98,.68,.77,.25,1.19,.25c.24,0,.5-.03,.75-.1,.25-.07,.49-.16,.72-.28,.12-.08,.2-.18,.24-.32,.05-.14,.03-.28-.03-.4-.06-.1-.13-.17-.21-.22h0Z"/>
          <path class="cls-1" d="M23.28,65.97c.15-.09,.28-.2,.4-.32,.05-.06,.11-.11,.15-.17v.09l.2-.41c.06-.12,.11-.25,.14-.36s.06-.22,.08-.31c.01-.09,.03-.17,.03-.24v-.11c0-.41-.1-.78-.28-1.1-.19-.32-.45-.57-.78-.75-.12-.06-.24-.1-.35-.14s-.21-.06-.3-.08c-.09-.02-.17-.03-.23-.03-.06,0-.11,0-.12,0h-1.39c-.14,0-.27,.05-.37,.16-.1,.1-.15,.23-.15,.38v5.22c0,.14,.05,.27,.15,.38,.21,.22,.54,.21,.74,0,.1-.1,.15-.23,.15-.38v-1.55h.82l1.12,1.83c.11,.16,.26,.25,.45,.25,.11,0,.2-.02,.27-.08s.14-.13,.18-.2c.05-.08,.07-.17,.07-.25,0-.04,0-.08-.01-.13h.04l-1.02-1.68h0Zm-.08-1.65c-.01,.06-.02,.12-.05,.19-.01,.06-.04,.13-.07,.19-.17,.31-.46,.45-.86,.45h-.86v-2.04h.86c.05,0,.11,0,.16,.02,.05,.01,.11,.02,.18,.04,.06,.02,.12,.04,.18,.07,.32,.17,.47,.46,.47,.89v.06s0,.08-.01,.13h0Z"/>
          <path class="cls-1" d="M26.67,62.19c-.1,.1-.15,.23-.15,.38v5.22c0,.14,.05,.27,.15,.38,.1,.1,.23,.16,.37,.16s.27-.05,.37-.15,.16-.23,.16-.38v-5.22c0-.14-.05-.27-.16-.38-.21-.21-.53-.2-.73,0h0Z"/>
          <path class="cls-1" d="M32.88,62.36c-.05-.09-.11-.17-.19-.23-.18-.14-.41-.14-.58,0-.08,.06-.14,.14-.2,.24-.33,.84-.67,1.71-1.02,2.6s-.69,1.76-1.01,2.6c-.02,.06-.03,.13-.03,.2,0,.13,.05,.26,.14,.36,.1,.11,.23,.17,.38,.17,.1,0,.2-.04,.29-.11,.08-.07,.15-.14,.19-.24l.38-.95h2.33l.38,.97c.05,.08,.11,.15,.2,.22,.09,.07,.19,.11,.29,.11,.16,0,.29-.06,.39-.17,.09-.11,.14-.23,.14-.37,0-.08-.01-.14-.03-.2l-2.04-5.21h0Zm.25,3.58h-1.47l.74-1.91,.73,1.91Z"/>
          <path class="cls-1" d="M39.56,62.03h-3.04c-.14,0-.27,.05-.37,.15s-.16,.23-.16,.38,.05,.28,.16,.39,.23,.16,.37,.16h1v4.67c0,.14,.05,.27,.15,.38,.1,.1,.23,.16,.37,.16s.27-.05,.37-.16c.1-.1,.15-.23,.15-.38v-4.66h.99c.14,0,.27-.06,.38-.16s.16-.24,.16-.39-.05-.27-.16-.38c-.11-.1-.23-.16-.38-.16Z"/>
          <path class="cls-1" d="M42.48,62.19c-.1,.1-.15,.23-.15,.38v5.22c0,.14,.05,.27,.15,.38,.1,.1,.23,.16,.37,.16s.27-.05,.37-.15,.16-.23,.16-.38v-5.22c0-.14-.05-.27-.16-.38-.21-.21-.53-.2-.73,0h0Z"/>
          <path class="cls-1" d="M50.24,62.03c-.11,0-.21,.03-.29,.09-.09,.06-.16,.14-.2,.26l-1.53,3.95-1.55-3.94c-.03-.11-.1-.2-.19-.26-.09-.06-.19-.09-.29-.09-.15,0-.28,.06-.38,.17-.09,.11-.14,.23-.14,.37,0,.08,.01,.14,.03,.2l2.04,5.21c.05,.09,.11,.17,.19,.23,.09,.07,.19,.1,.3,.1,.1,0,.2-.03,.29-.1,.08-.06,.14-.14,.2-.24,.32-.83,.66-1.71,1.01-2.6,.35-.89,.69-1.76,1.01-2.6,.02-.06,.03-.12,.03-.21,0-.13-.05-.25-.14-.36-.11-.12-.24-.18-.4-.18h0Z"/>
          <path class="cls-1" d="M57.98,63.95c-.15-.38-.37-.71-.63-1s-.58-.52-.94-.68c-.71-.33-1.57-.33-2.29,0-.36,.16-.67,.39-.94,.68-.27,.28-.48,.62-.63,1-.15,.38-.23,.79-.23,1.22s.08,.84,.23,1.22c.15,.38,.37,.72,.63,1s.58,.51,.94,.68,.74,.25,1.14,.25,.79-.08,1.14-.25c.36-.16,.67-.39,.94-.68s.48-.62,.63-1c.15-.38,.23-.79,.23-1.22s-.08-.83-.24-1.22h0Zm-.82,1.22c0,.28-.05,.55-.14,.81-.1,.25-.24,.47-.41,.66-.17,.18-.37,.34-.59,.44-.45,.21-1.01,.21-1.46,0-.23-.11-.43-.26-.59-.44-.17-.18-.3-.41-.41-.66s-.14-.52-.14-.81,.05-.55,.14-.81c.1-.25,.24-.47,.41-.66,.17-.18,.37-.34,.59-.44,.23-.11,.47-.16,.73-.16s.5,.05,.73,.16,.43,.26,.59,.44c.17,.18,.3,.41,.41,.66,.1,.25,.14,.52,.14,.81h0Z"/>
        </g>
        <path class="cls-1" d="M65.69,8.11c-1.96-4.24-6.22-5.06-8.53-4.88h-23.09c1.24,.95,2.33,2.23,3.11,3.92,.23,.49,.41,.98,.56,1.45h19.53c.6,0,2.68-.22,3.68,1.8,.21,.43,.86,1.86-2.85,6.13-3.63,4.18-34.93,35.79-35.26,36.14-1.03,1.04-1.04,2.74-.02,3.8,.51,.54,1.19,.8,1.87,.8s1.33-.26,1.84-.77c1.37-1.38,31.76-32.08,35.5-36.39,3.4-3.93,5.84-7.3,3.66-12h0Z"/>
        <path class="cls-1" d="M34.82,8.12c-1.96-4.24-5.59-4.87-8.53-4.87l-18.24-.02c-3.28,0-5.08,2.29-5.08,5.85v57.03c-.01,1.48,1.16,2.69,2.6,2.69s2.62-1.21,2.62-2.69v-22.43c1.93-1.93,19.36-19.39,22.97-23.55,3.4-3.93,5.84-7.31,3.67-12h0Zm-7.58,8.43c-2.61,3.01-13.26,13.77-19.05,19.6V11.82c0-1.03,.31-3.22,2.85-3.22h15.63c.16,0,2.77-.19,3.39,1.74,.22,.69,.9,1.94-2.81,6.22Z"/>
      </g>
    </g>
  </g>
</svg>